# Made in Blockbench 4.5.2
mtllib SkyBoxModel.mtl

o sphere
v 0.0625 -15.625 -2.4375
v 0.0625 15.625 -2.4375
v 2.1558530658681456 13.531646934131855 5.374999999999998
v 3.6882938682637065 7.812500000000002 11.094146934131851
v 4.249206131736292 9.567553118338697e-16 13.1875
v 3.688293868263707 -7.8124999999999964 11.094146934131853
v 2.1558530658681456 -13.531646934131855 5.374999999999998
v 5.781646934131852 13.531646934131855 3.281646934131853
v 9.968353065868143 7.812500000000002 7.468353065868145
v 11.500793868263706 9.567553118338697e-16 9.000793868263708
v 9.968353065868145 -7.8124999999999964 7.468353065868147
v 5.781646934131852 -13.531646934131855 3.281646934131853
v 7.874999999999998 13.531646934131855 -0.3441469341318544
v 13.594146934131851 7.812500000000002 1.1882938682637065
v 15.6875 9.567553118338697e-16 1.7492061317362921
v 13.594146934131853 -7.8124999999999964 1.188293868263707
v 7.874999999999998 -13.531646934131855 -0.3441469341318544
v 7.874999999999998 13.531646934131855 -4.530853065868147
v 13.594146934131851 7.812500000000002 -6.063293868263708
v 15.6875 9.567553118338697e-16 -6.624206131736294
v 13.594146934131853 -7.8124999999999964 -6.063293868263709
v 7.874999999999998 -13.531646934131855 -4.530853065868147
v 5.781646934131853 13.531646934131855 -8.156646934131853
v 9.968353065868145 7.812500000000002 -12.343353065868143
v 11.500793868263708 9.567553118338697e-16 -13.875793868263706
v 9.968353065868147 -7.8124999999999964 -12.343353065868145
v 5.781646934131853 -13.531646934131855 -8.156646934131853
v 2.155853065868148 13.531646934131855 -10.249999999999996
v 3.6882938682637105 7.812500000000002 -15.96914693413185
v 4.249206131736297 9.567553118338697e-16 -18.0625
v 3.688293868263711 -7.8124999999999964 -15.969146934131851
v 2.155853065868148 -13.531646934131855 -10.249999999999996
v -2.0308530658681425 13.531646934131855 -10.25
v -3.563293868263701 7.812500000000002 -15.969146934131853
v -4.124206131736286 9.567553118338697e-16 -18.0625
v -3.5632938682637016 -7.8124999999999964 -15.969146934131855
v -2.0308530658681425 -13.531646934131855 -10.25
v -5.656646934131852 13.531646934131855 -8.156646934131853
v -9.843353065868143 7.812500000000002 -12.343353065868147
v -11.375793868263706 9.567553118338697e-16 -13.87579386826371
v -9.843353065868145 -7.8124999999999964 -12.343353065868147
v -5.656646934131852 -13.531646934131855 -8.156646934131853
v -7.749999999999998 13.531646934131855 -4.530853065868145
v -13.469146934131851 7.812500000000002 -6.063293868263705
v -15.5625 9.567553118338697e-16 -6.62420613173629
v -13.469146934131853 -7.8124999999999964 -6.063293868263706
v -7.749999999999998 -13.531646934131855 -4.530853065868145
v -7.749999999999999 13.531646934131855 -0.34414693413185793
v -13.469146934131853 7.812500000000002 1.1882938682637003
v -15.562500000000002 9.567553118338697e-16 1.749206131736285
v -13.469146934131855 -7.8124999999999964 1.1882938682637008
v -7.749999999999999 -13.531646934131855 -0.34414693413185793
v -5.656646934131854 13.531646934131855 3.2816469341318513
v -9.843353065868147 7.812500000000002 7.468353065868142
v -11.37579386826371 9.567553118338697e-16 9.000793868263704
v -9.843353065868147 -7.8124999999999964 7.468353065868143
v -5.656646934131854 -13.531646934131855 3.2816469341318513
v -2.030853065868145 13.531646934131855 5.374999999999998
v -3.563293868263706 7.812500000000002 11.094146934131851
v -4.124206131736291 9.567553118338697e-16 13.1875
v -3.5632938682637065 -7.8124999999999964 11.094146934131853
v -2.030853065868145 -13.531646934131855 5.374999999999998
vt 0.16214664944755344 0.0033003300330033403
vt 0.2871466494475536 0.0033003300330033403
vt 0.22464664944755347 1
vt 0.18856230929444906 1
vt 0.16214664944755344 0.0033003300330033403
vt 0.2871466494475536 0.0033003300330033403
vt 0.2607309896006578 1
vt 0.17052006500542782 1
vt 0.16214664944755344 0.0033003300330033403
vt 0.2871466494475536 0.0033003300330033403
vt 0.2787732338896792 1
vt 0.16214664944755344 1
vt 0.17052006500542782 0.0033003300330033403
vt 0.2787732338896792 0.0033003300330033403
vt 0.2871466494475536 1
vt 0.16214664944755344 1
vt 0.18856230929444906 0.0033003300330033403
vt 0.2607309896006578 0.0033003300330033403
vt 0.2871466494475536 1
vt 0.2871466494475536 1
vt 0.16214664944755344 1
vt 0.22464664944755347 0.0033003300330033403
vt 0.16214664944755344 0.0033003300330033403
vt 0.2871466494475536 0.0033003300330033403
vt 0.22464664944755347 1
vt 0.18856230929444906 1
vt 0.16214664944755344 0.0033003300330033403
vt 0.2871466494475536 0.0033003300330033403
vt 0.2607309896006578 1
vt 0.17052006500542782 1
vt 0.16214664944755344 0.0033003300330033403
vt 0.2871466494475536 0.0033003300330033403
vt 0.2787732338896792 1
vt 0.16214664944755344 1
vt 0.17052006500542782 0.0033003300330033403
vt 0.2787732338896792 0.0033003300330033403
vt 0.2871466494475536 1
vt 0.16214664944755344 1
vt 0.18856230929444906 0.0033003300330033403
vt 0.2607309896006578 0.0033003300330033403
vt 0.2871466494475536 1
vt 0.2871466494475536 1
vt 0.16214664944755344 1
vt 0.22464664944755347 0.0033003300330033403
vt 0.16214664944755344 0.0033003300330033403
vt 0.2871466494475536 0.0033003300330033403
vt 0.22464664944755347 1
vt 0.18856230929444906 1
vt 0.16214664944755344 0.0033003300330033403
vt 0.2871466494475536 0.0033003300330033403
vt 0.2607309896006578 1
vt 0.17052006500542782 1
vt 0.16214664944755344 0.0033003300330033403
vt 0.2871466494475536 0.0033003300330033403
vt 0.2787732338896792 1
vt 0.16214664944755344 1
vt 0.17052006500542782 0.0033003300330033403
vt 0.2787732338896792 0.0033003300330033403
vt 0.2871466494475536 1
vt 0.16214664944755344 1
vt 0.18856230929444906 0.0033003300330033403
vt 0.2607309896006578 0.0033003300330033403
vt 0.2871466494475536 1
vt 0.2871466494475536 1
vt 0.16214664944755344 1
vt 0.22464664944755347 0.0033003300330033403
vt 0.16214664944755344 0.0033003300330033403
vt 0.2871466494475536 0.0033003300330033403
vt 0.22464664944755347 1
vt 0.18856230929444906 1
vt 0.16214664944755344 0.0033003300330033403
vt 0.2871466494475536 0.0033003300330033403
vt 0.2607309896006578 1
vt 0.17052006500542782 1
vt 0.16214664944755344 0.0033003300330033403
vt 0.2871466494475536 0.0033003300330033403
vt 0.2787732338896792 1
vt 0.16214664944755344 1
vt 0.17052006500542782 0.0033003300330033403
vt 0.2787732338896792 0.0033003300330033403
vt 0.2871466494475536 1
vt 0.16214664944755344 1
vt 0.18856230929444906 0.0033003300330033403
vt 0.2607309896006578 0.0033003300330033403
vt 0.2871466494475536 1
vt 0.2871466494475536 1
vt 0.16214664944755344 1
vt 0.22464664944755347 0.0033003300330033403
vt 0.16214664944755344 0.0033003300330033403
vt 0.2871466494475536 0.0033003300330033403
vt 0.22464664944755347 1
vt 0.18856230929444906 1
vt 0.16214664944755344 0.0033003300330033403
vt 0.2871466494475536 0.0033003300330033403
vt 0.2607309896006578 1
vt 0.17052006500542782 1
vt 0.16214664944755344 0.0033003300330033403
vt 0.2871466494475536 0.0033003300330033403
vt 0.2787732338896792 1
vt 0.16214664944755344 1
vt 0.17052006500542782 0.0033003300330033403
vt 0.2787732338896792 0.0033003300330033403
vt 0.2871466494475536 1
vt 0.16214664944755344 1
vt 0.18856230929444906 0.0033003300330033403
vt 0.2607309896006578 0.0033003300330033403
vt 0.2871466494475536 1
vt 0.2871466494475536 1
vt 0.16214664944755344 1
vt 0.22464664944755347 0.0033003300330033403
vt 0.16214664944755344 0.0033003300330033403
vt 0.2871466494475536 0.0033003300330033403
vt 0.22464664944755347 1
vt 0.16214664944755344 1
vt 0.16214664944755344 0.0033003300330033403
vt 0.28484666839070477 0.0033003300330033403
vt 0.2871466494475536 1
vt 0.17052006500542782 1
vt 0.16214664944755344 0.0033003300330033403
vt 0.2871466494475536 0.0033003300330033403
vt 0.2787732338896792 1
vt 0.16214664944755344 1
vt 0.17052006500542782 0.0033003300330033403
vt 0.2787732338896792 0.0033003300330033403
vt 0.2871466494475536 1
vt 0.16214664944755344 1
vt 0.18856230929444906 0.0033003300330033403
vt 0.2607309896006578 0.0033003300330033403
vt 0.2871466494475536 1
vt 0.2871466494475536 1
vt 0.16214664944755344 1
vt 0.22464664944755347 0.0033003300330033403
vt 0.16214664944755344 0.0033003300330033403
vt 0.2871466494475536 0.0033003300330033403
vt 0.22464664944755347 1
vt 0.16214664944755344 1
vt 0.16214664944755344 0.0033003300330033403
vt 0.2871466494475536 0.0033003300330033403
vt 0.20958850991266975 1
vt 0.17052006500542782 1
vt 0.16214664944755344 0.0033003300330033403
vt 0.2871466494475536 0.0033003300330033403
vt 0.2787732338896792 1
vt 0.16214664944755344 1
vt 0.17052006500542782 0.0033003300330033403
vt 0.2787732338896792 0.0033003300330033403
vt 0.2871466494475536 1
vt 0.16214664944755344 1
vt 0.18856230929444906 0.0033003300330033403
vt 0.2607309896006578 0.0033003300330033403
vt 0.2871466494475536 1
vt 0.2871466494475536 1
vt 0.16214664944755344 1
vt 0.22464664944755347 0.0033003300330033403
vt 0.16214664944755344 0.0033003300330033403
vt 0.2871466494475536 0.0033003300330033403
vt 0.22464664944755347 1
vt 0.8994246998813338 0.9966996699669967
vt 0.8730090400344382 0
vt 0.9980090400344381 0
vt 0.9715933801875425 0.9966996699669967
vt 0.17052006500542782 1
vt 0.16214664944755344 0.0033003300330033403
vt 0.2871466494475536 0.0033003300330033403
vt 0.2787732338896792 1
vt 0.16214664944755344 1
vt 0.17052006500542782 0.0033003300330033403
vt 0.2787732338896792 0.0033003300330033403
vt 0.2871466494475536 1
vt 0.16214664944755344 1
vt 0.18856230929444906 0.0033003300330033403
vt 0.2607309896006578 0.0033003300330033403
vt 0.2871466494475536 1
vt 0.6352947975957016 0.9318848551521818
vt 0.15659109389199782 0.9800330033003299
vt 0.5283503531512571 0
vt 0.2751096124105164 0
vt 0.4001096124105165 0
vt 0.3042762790771832 0.9855885588558849
vt 0.8135981824469816 1
vt 0.787182522600086 0.0033003300330033403
vt 0.9121825226000859 0.0033003300330033403
vt 0.8857668627531905 1
vt 0.76814884962302 0.9979911034581719
vt 0.7597754340651456 0.00129143349117522
vt 0.8847754340651456 0.00129143349117522
vt 0.8764020185072711 0.9979911034581719
vt 0.6719579566652316 0.9966996699669967
vt 0.680331372223106 0
vt 0.7885845411073573 0
vt 0.7969579566652316 0.9966996699669967
vt 0.7616587745731095 1
vt 0.788074434420005 0.0033003300330033403
vt 0.860243114726214 0.0033003300330033403
vt 0.8866587745731096 1
vt 0.9276976610704549 0.9966996699669967
vt 0.8026976610704549 0.9966996699669967
vt 0.8651976610704549 0
vt 0.6581826660926962 0
vt 0.7831826660926962 0
vt 0.7206826660926962 0.9966996699669967
vt 0.7900653943855668 0.9966996699669967
vt 0.7636497345386711 0
vt 0.8886497345386712 0
vt 0.8622340746917756 0.9966996699669967
vt 0.8833734155578745 0.9966996699669967
vt 0.8750000000000002 0
vt 1 0
vt 0.9916265844421257 0.9966996699669967
vt 0.31296296296296294 0.9966996699669967
vt 0.32133637852083746 0
vt 0.4295895474050886 0
vt 0.4379629629629629 0.9966996699669967
vt 0.3333333333333333 0.9966996699669967
vt 0.3597489931802291 0
vt 0.43191767348643806 0
vt 0.4583333333333335 0.9966996699669967
vt 0.7168890802123689 0.9966996699669967
vt 0.591889080212369 0.9966996699669967
vt 0.654389080212369 0
vt 0.7227543406514564 0.00129143349117522
vt 0.8477543406514564 0.00129143349117522
vt 0.7852543406514564 0.9979911034581719
vt 0.4367853924723322 0.9966996699669967
vt 0.41036973262543647 0
vt 0.5353697326254363 0
vt 0.5089540727785411 0.9966996699669967
vt 0.5791989763748256 1
vt 0.5708255608169513 0.0033003300330033403
vt 0.6958255608169513 0.0033003300330033403
vt 0.687452145259077 1
vt 0.875 0.9966996699669967
vt 0.8833734155578743 0
vt 0.9580107856702277 0.00200889654182812
vt 1 0.9966996699669967
vt 0.42733215350520515 0.9966996699669967
vt 0.4608258856307528 0
vt 0.7745543757274276 0
vt 0.7602617708112469 1
vt 0.5009259259259258 0.9966996699669967
vt 0.37592592592592594 0.9966996699669967
vt 0.4384259259259259 0
vt 0.7774429616874734 0
vt 0.902442961687473 0
vt 0.8399429616874732 0.9966996699669967
vt 0.7940831874692229 0.9966996699669967
vt 0.7676675276223273 0
vt 0.8926675276223273 0
vt 0.8662518677754316 0.9966996699669967
vt 0.7701577461648492 1
vt 0.7617843306069749 0.1947194719471952
vt 0.8575118381403364 0.15755488592337508
vt 0.8784109150491004 1
vt 0.7441347395609125 1
vt 0.7450677522364495 0.0033003300330033403
vt 0.860761324003038 0.0033003300330033403
vt 0.8691347395609125 1
vt 0.8515479265317836 0.8948829743318761
vt 0.8771065205466706 0
vt 0.9499026160177579 0
vt 0.9765479265317836 0.9966996699669967
vt -0.7710255374148716 8.0881
vt -1.09335 8.0881
vt -0.9321877687074357 6.915418911827205
vn 0.12940952255126034 0.9659258262890684 0.22414386804201336
vn 0.35355339059327373 0.7071067811865476 0.6123724356957945
vn 0.4829629131445342 0.2588190451025211 0.8365163037378078
vn 0.48296291314453405 -0.258819045102521 0.8365163037378082
vn 0.35355339059327384 -0.7071067811865472 0.6123724356957948
vn 0.12940952255126037 -0.9659258262890684 0.2241438680420134
vn 0.22414386804201336 0.9659258262890684 0.12940952255126037
vn 0.6123724356957946 0.7071067811865475 0.3535533905932738
vn 0.8365163037378078 0.2588190451025209 0.4829629131445342
vn 0.8365163037378079 -0.25881904510252074 0.4829629131445341
vn 0.6123724356957947 -0.7071067811865474 0.3535533905932738
vn 0.22414386804201342 -0.9659258262890684 0.1294095225512604
vn 0.25881904510252074 0.9659258262890684 0
vn 0.7071067811865476 0.7071067811865476 0
vn 0.9659258262890682 0.258819045102521 0
vn 0.9659258262890683 -0.2588190451025209 0
vn 0.7071067811865478 -0.7071067811865474 0
vn 0.25881904510252074 -0.9659258262890684 0
vn 0.22414386804201336 0.9659258262890684 -0.12940952255126037
vn 0.6123724356957946 0.7071067811865476 -0.3535533905932738
vn 0.8365163037378077 0.2588190451025211 -0.4829629131445343
vn 0.8365163037378079 -0.25881904510252096 -0.48296291314453405
vn 0.6123724356957948 -0.7071067811865474 -0.3535533905932739
vn 0.22414386804201336 -0.9659258262890684 -0.12940952255126037
vn 0.1294095225512603 0.9659258262890682 -0.22414386804201333
vn 0.3535533905932739 0.7071067811865475 -0.6123724356957947
vn 0.48296291314453454 0.258819045102521 -0.8365163037378078
vn 0.48296291314453416 -0.25881904510252074 -0.8365163037378079
vn 0.3535533905932738 -0.7071067811865472 -0.6123724356957949
vn 0.1294095225512603 -0.9659258262890682 -0.22414386804201333
vn 2.1962610532888643e-16 0.9659258262890684 -0.25881904510252074
vn 3.634394783188147e-16 0.7071067811865476 -0.7071067811865476
vn 0 0.2588190451025213 -0.9659258262890682
vn 4.84585971091753e-16 -0.25881904510252124 -0.9659258262890683
vn 4.1966376128300945e-16 -0.7071067811865474 -0.7071067811865478
vn 2.1962610532888643e-16 -0.9659258262890684 -0.25881904510252074
vn -0.12940952255126037 0.9659258262890684 -0.2241438680420134
vn -0.35355339059327356 0.7071067811865475 -0.6123724356957947
vn -0.4829629131445338 0.2588190451025209 -0.8365163037378083
vn -0.48296291314453393 -0.2588190451025208 -0.8365163037378083
vn -0.35355339059327395 -0.7071067811865472 -0.6123724356957947
vn -0.12940952255126037 -0.9659258262890684 -0.2241438680420134
vn -0.2241438680420134 0.9659258262890684 -0.12940952255126037
vn -0.6123724356957946 0.7071067811865476 -0.3535533905932737
vn -0.836516303737808 0.2588190451025209 -0.4829629131445341
vn -0.8365163037378082 -0.2588190451025209 -0.4829629131445341
vn -0.6123724356957947 -0.7071067811865474 -0.3535533905932738
vn -0.2241438680420134 -0.9659258262890684 -0.12940952255126037
vn -0.25881904510252074 0.9659258262890684 -5.490652633222165e-17
vn -0.7071067811865476 0.7071067811865476 -1.2114649277293833e-16
vn -0.9659258262890682 0.2588190451025211 -2.0983188064150487e-16
vn -0.9659258262890682 -0.25881904510252096 -2.4229298554587665e-16
vn -0.7071067811865478 -0.7071067811865474 0
vn -0.25881904510252074 -0.9659258262890684 -5.490652633222165e-17
vn -0.22414386804201342 0.9659258262890684 0.1294095225512603
vn -0.6123724356957948 0.7071067811865476 0.35355339059327345
vn -0.836516303737808 0.258819045102521 0.482962913144534
vn -0.8365163037378082 -0.258819045102521 0.482962913144534
vn -0.6123724356957949 -0.7071067811865474 0.3535533905932737
vn -0.22414386804201342 -0.9659258262890684 0.1294095225512603
vn -0.1294095225512604 0.9659258262890684 0.2241438680420134
vn -0.35355339059327384 0.7071067811865475 0.6123724356957946
vn -0.4829629131445343 0.25881904510252096 0.8365163037378079
vn -0.4829629131445342 -0.25881904510252085 0.8365163037378078
vn -0.35355339059327395 -0.7071067811865472 0.6123724356957948
vn -0.1294095225512604 -0.9659258262890684 0.2241438680420134
vn 0 0.9659258262890684 0.25881904510252074
vn 0 0.7071067811865476 0.7071067811865476
vn 0 0.258819045102521 0.9659258262890682
vn 0 -0.25881904510252096 0.9659258262890682
vn 0 -0.7071067811865474 0.7071067811865478
vn 0 -0.9659258262890684 0.25881904510252074
usemtl m_6aee9e39-3000-7c7d-3aee-209772b02b1e
f 3/1/1 8/2/1 2/3/1
f 3/4/2 4/5/2 9/6/2 8/7/2
f 4/8/3 5/9/3 10/10/3 9/11/3
f 5/12/4 6/13/4 11/14/4 10/15/4
f 6/16/5 7/17/5 12/18/5 11/19/5
f 12/20/6 7/21/6 1/22/6
f 8/23/7 13/24/7 2/25/7
f 8/26/8 9/27/8 14/28/8 13/29/8
f 9/30/9 10/31/9 15/32/9 14/33/9
f 10/34/10 11/35/10 16/36/10 15/37/10
f 11/38/11 12/39/11 17/40/11 16/41/11
f 17/42/12 12/43/12 1/44/12
f 13/45/13 18/46/13 2/47/13
f 13/48/14 14/49/14 19/50/14 18/51/14
f 14/52/15 15/53/15 20/54/15 19/55/15
f 15/56/16 16/57/16 21/58/16 20/59/16
f 16/60/17 17/61/17 22/62/17 21/63/17
f 22/64/18 17/65/18 1/66/18
f 18/67/19 23/68/19 2/69/19
f 18/70/20 19/71/20 24/72/20 23/73/20
f 19/74/21 20/75/21 25/76/21 24/77/21
f 20/78/22 21/79/22 26/80/22 25/81/22
f 21/82/23 22/83/23 27/84/23 26/85/23
f 27/86/24 22/87/24 1/88/24
f 23/89/25 28/90/25 2/91/25
f 23/92/26 24/93/26 29/94/26 28/95/26
f 24/96/27 25/97/27 30/98/27 29/99/27
f 25/100/28 26/101/28 31/102/28 30/103/28
f 26/104/29 27/105/29 32/106/29 31/107/29
f 32/108/30 27/109/30 1/110/30
f 28/111/31 33/112/31 2/113/31
f 28/114/32 29/115/32 34/116/32 33/117/32
f 29/118/33 30/119/33 35/120/33 34/121/33
f 30/122/34 31/123/34 36/124/34 35/125/34
f 31/126/35 32/127/35 37/128/35 36/129/35
f 37/130/36 32/131/36 1/132/36
f 33/133/37 38/134/37 2/135/37
f 33/136/38 34/137/38 39/138/38 38/139/38
f 34/140/39 35/141/39 40/142/39 39/143/39
f 35/144/40 36/145/40 41/146/40 40/147/40
f 36/148/41 37/149/41 42/150/41 41/151/41
f 42/152/42 37/153/42 1/154/42
f 38/155/43 43/156/43 2/157/43
f 38/158/44 39/159/44 44/160/44 43/161/44
f 39/162/45 40/163/45 45/164/45 44/165/45
f 40/166/46 41/167/46 46/168/46 45/169/46
f 41/170/47 42/171/47 47/172/47 46/173/47
f 47/174/48 42/175/48 1/176/48
f 43/177/49 48/178/49 2/179/49
f 43/180/50 44/181/50 49/182/50 48/183/50
f 44/184/51 45/185/51 50/186/51 49/187/51
f 45/188/52 46/189/52 51/190/52 50/191/52
f 46/192/53 47/193/53 52/194/53 51/195/53
f 52/196/54 47/197/54 1/198/54
f 48/199/55 53/200/55 2/201/55
f 48/202/56 49/203/56 54/204/56 53/205/56
f 49/206/57 50/207/57 55/208/57 54/209/57
f 50/210/58 51/211/58 56/212/58 55/213/58
f 51/214/59 52/215/59 57/216/59 56/217/59
f 57/218/60 52/219/60 1/220/60
f 53/221/61 58/222/61 2/223/61
f 53/224/62 54/225/62 59/226/62 58/227/62
f 54/228/63 55/229/63 60/230/63 59/231/63
f 55/232/64 56/233/64 61/234/64 60/235/64
f 56/236/65 57/237/65 62/238/65 61/239/65
f 62/240/66 57/241/66 1/242/66
f 58/243/67 3/244/67 2/245/67
f 58/246/68 59/247/68 4/248/68 3/249/68
f 59/250/69 60/251/69 5/252/69 4/253/69
f 60/254/70 61/255/70 6/256/70 5/257/70
f 61/258/71 62/259/71 7/260/71 6/261/71
f 7/262/72 62/263/72 1/264/72